<svg id="Layer_1" data-name="Layer 1" xmlns="http://www.w3.org/2000/svg" viewBox="0 0 309.4 174.73"><defs><style>.cls-1{fill:#8fadd8;}.cls-2{fill:#231f20;}.cls-3{fill:none;stroke:#8fadd8;stroke-linecap:round;stroke-miterlimit:10;}</style></defs><title>Logo Paseito</title><path class="cls-1" d="M58.31,95.59a1.16,1.16,0,0,1,1.17-1.16H74.27a13.69,13.69,0,1,1,.06,27.37H67.88v14.42a1.2,1.2,0,0,1-1.16,1.16H59.48a1.16,1.16,0,0,1-1.17-1.16ZM35.62,94.43a13.69,13.69,0,1,1,.06,27.37m38.4-9A4.52,4.52,0,0,0,78.56,108a4.37,4.37,0,0,0-4.48-4.54h-6.2v9.39"/><path class="cls-2" d="M100.23,119.28a13.38,13.38,0,0,1,5.58,1.23c0-2.76-1.84-4.36-5.16-4.36a21.24,21.24,0,0,0-5.89,1c-1.1.37-1.59-.43-1.71-1.47l-.68-4.36a1.6,1.6,0,0,1,1.11-2,35.28,35.28,0,0,1,8.22-.92c7.85,0,13.07,4.42,13.07,12.33v15.53a1.35,1.35,0,0,1-1.54,1.35,4.69,4.69,0,0,1-4.9-3.62,10.45,10.45,0,0,1-8.72,4.05c-5.58,0-9.82-3.68-9.82-9.33C89.79,123.27,93.78,119.28,100.23,119.28Zm1.84,11.9a3.19,3.19,0,0,0,3.19-3.13,3.23,3.23,0,0,0-3.19-3.12,3.18,3.18,0,0,0-3.13,3.12A3.14,3.14,0,0,0,102.07,131.18Z"/><path class="cls-2" d="M120.91,135.73a1,1,0,0,1-.49-1.48l2.27-4.66a1.1,1.1,0,0,1,1.47-.61,15.44,15.44,0,0,0,7,1.78c1.84,0,2.14-.68,2.14-1.35,0-.93-1.53-1.66-4.85-3-5.46-2.15-8.28-4.66-8.28-9.2,0-5.1,3.38-8.84,10.74-8.84a23.23,23.23,0,0,1,9.69,2.15,1.34,1.34,0,0,1,.74,1.84L139.13,117a1.14,1.14,0,0,1-1.47.49,16.08,16.08,0,0,0-6.63-1.72c-1.59,0-2,.43-2,1.17s1.16,1.35,3.19,2.08c5.7,2.09,10.37,4.36,10.37,10.07,0,4.91-4,9-11.54,9A20.93,20.93,0,0,1,120.91,135.73Z"/><path class="cls-2" d="M161,108.42a13.2,13.2,0,0,1,13.44,13.25c0,.43-.06,1.41-.12,1.84a1.38,1.38,0,0,1-1.35,1.23H155.52c0,2.21,2,4.91,5.89,4.91a10.87,10.87,0,0,0,5.4-1.78,1.16,1.16,0,0,1,1.78,0l3.13,4.11a1.52,1.52,0,0,1-.06,2,14.28,14.28,0,0,1-10.5,4.05c-8.46,0-14.85-6.08-14.85-14.85A14.7,14.7,0,0,1,161,108.42Zm3.87,10.92a3.87,3.87,0,0,0-4.11-3.5,4.21,4.21,0,0,0-4.24,3.5Z"/><path class="cls-2" d="M178.72,99.83a5.31,5.31,0,1,1,5.27,5.28A5.28,5.28,0,0,1,178.72,99.83Zm.67,10.55a1.32,1.32,0,0,1,1.35-1.35h6.63a1.33,1.33,0,0,1,1.35,1.35V136a1.36,1.36,0,0,1-1.35,1.35h-6.63a1.36,1.36,0,0,1-1.35-1.35Z"/><path class="cls-2" d="M195,117.44a1.3,1.3,0,0,1-1.23-1.35v-5.71A1.26,1.26,0,0,1,195,109h2.33v-7.85a1.36,1.36,0,0,1,1.35-1.35h6.75a1.3,1.3,0,0,1,1.23,1.35V109h5.7a1.32,1.32,0,0,1,1.35,1.35v5.71a1.36,1.36,0,0,1-1.35,1.35h-5.7v9c0,2,.92,2.82,2.64,2.82a11.93,11.93,0,0,0,2.76-.55,1.22,1.22,0,0,1,1.59.86l1.23,5.46c.18.86-.12,1.23-.92,1.6a15.33,15.33,0,0,1-6,1.41c-6.75,0-10.62-3.87-10.62-11.11v-9.51Z"/><path class="cls-2" d="M232.78,108.42A14.82,14.82,0,1,1,218,123.15,14.85,14.85,0,0,1,232.78,108.42Zm0,20.86a6.06,6.06,0,0,0,5.89-6.13,5.92,5.92,0,1,0-11.84,0A6.07,6.07,0,0,0,232.78,129.28Z"/><path class="cls-1" d="M232.75,41.36a21.64,21.64,0,0,0-19.64,30.71c.13.28.27.56.41.84h0a21.44,21.44,0,0,0,1.08,1.86l15.71,27a2.82,2.82,0,0,0,4.93,0L250.77,75a22.56,22.56,0,0,0,1.35-2.34h0a21.63,21.63,0,0,0-19.37-31.25Zm0,32A10.67,10.67,0,1,1,243.42,62.7,10.67,10.67,0,0,1,232.75,73.37Z"/><line class="cls-3" x1="60.34" y1="90.97" x2="77.11" y2="90.97"/><path class="cls-1" d="M254.38,109.71a13.69,13.69,0,1,1,.06,27.37"/><path class="cls-3" d="M82,92.64a13.93,13.93,0,0,1,8.79,11.56"/></svg>